/* XPM */
static char *_653524419675[] = {
/* columns rows colors chars-per-pixel */
"32 32 173 2 ",
"   c black",
".  c #090609",
"X  c #1B120A",
"o  c #150F14",
"O  c #041711",
"+  c gray8",
"@  c #1D1412",
"#  c gray10",
"$  c #1D1D1D",
"%  c #2A1500",
"&  c #26100B",
"*  c #06221A",
"=  c #1B3513",
"-  c #28241E",
";  c #312111",
":  c #32231F",
">  c #3F311F",
",  c #171F20",
"<  c #0C1332",
"1  c #281D27",
"2  c #2D0136",
"3  c #093527",
"4  c #08392A",
"5  c #252525",
"6  c #272727",
"7  c #2D2D2D",
"8  c gray18",
"9  c #353029",
"0  c #332D30",
"q  c #3B2F3B",
"w  c #263335",
"e  c gray19",
"r  c #313131",
"t  c #373737",
"y  c #3E3A35",
"u  c gray22",
"i  c #440B04",
"p  c #411D14",
"a  c #671006",
"s  c #402000",
"d  c #5A2B21",
"f  c #4B3D21",
"g  c #413C35",
"h  c #463F3B",
"j  c #6B3B2F",
"k  c #274F1C",
"l  c #3E5F10",
"z  c #0D553F",
"x  c #356A26",
"c  c #4E7216",
"v  c #5E4022",
"b  c #464139",
"n  c #4A4338",
"m  c #5E4635",
"M  c #5C413A",
"N  c #6A5435",
"B  c #735C33",
"V  c #051652",
"C  c #132051",
"Z  c #142964",
"A  c #263F74",
"S  c #4F0160",
"D  c #601271",
"F  c #414141",
"G  c #464646",
"H  c #484541",
"J  c #484848",
"K  c #504A42",
"L  c #514B43",
"P  c #524F4D",
"I  c #5F584C",
"U  c #405457",
"Y  c gray34",
"T  c #5B5650",
"R  c #585858",
"E  c gray35",
"W  c #5B5B5B",
"Q  c #62594C",
"!  c #7D5E48",
"~  c #665D57",
"^  c #66635F",
"/  c #6A5969",
"(  c gray40",
")  c DimGray",
"_  c #746C63",
"`  c #786F62",
"'  c #726F6D",
"]  c #800000",
"[  c #991809",
"{  c red",
"}  c #D33E12",
"|  c #885C31",
" . c #A56927",
".. c #FC5C18",
"X. c #DA7B12",
"o. c #C17B2F",
"O. c #8E5740",
"+. c #846842",
"@. c #94754A",
"#. c #9B7559",
"$. c #B07840",
"%. c #ED5A41",
"&. c #F57D49",
"*. c #00BF00",
"=. c #5F8B1B",
"-. c #61971A",
";. c #6CA81D",
":. c #77B327",
">. c #7BB524",
",. c green",
"<. c #9B832F",
"1. c #FBA01A",
"2. c #89CA28",
"3. c #96CB2C",
"4. c #96D735",
"5. c yellow",
"6. c #FFFF04",
"7. c #B08E4F",
"8. c #858079",
"9. c #94897A",
"0. c #C28D58",
"q. c #CEB55B",
"w. c #F3B04B",
"e. c #CA9B6C",
"r. c #FCBE61",
"t. c #9BD940",
"y. c #B6E340",
"u. c #ADE061",
"i. c #F9DF77",
"p. c #1E3180",
"a. c #395787",
"s. c #2843AC",
"d. c #415FD3",
"f. c #8000FF",
"g. c #B56AFF",
"h. c #008080",
"j. c #7086DE",
"k. c #808080",
"l. c gray52",
"z. c #8B8286",
"x. c #8D8D8D",
"c. c #98938F",
"v. c #979797",
"b. c #9D9D9D",
"n. c #A9A095",
"m. c #99B1B5",
"M. c #BDB1AB",
"N. c #BDB7AF",
"B. c #BBBBBB",
"V. c #C9B0A0",
"C. c #BDE680",
"Z. c #FFFF80",
"A. c #D5C1B5",
"S. c #DDCEB3",
"D. c #E9DDB4",
"F. c #91A2E6",
"G. c #CA95FF",
"H. c #DDBBFF",
"J. c #C0C0C0",
"K. c gray79",
"L. c #D3CBC7",
"P. c #D3CEC9",
"I. c #DCD7C9",
"U. c gray83",
"Y. c #DDDDDD",
"T. c #E0D2C9",
"R. c #EAE0CC",
"E. c #FFFCC6",
"W. c #ECE4DF",
"Q. c #DEE6E7",
"!. c #E7E7E7",
"~. c gray94",
"^. c None",
/* pixels */
"9.P.N.N.N.N.N.n.9.P.` ` ` ` ` ` ` ` ` ` ` ` N.n.9.P.N.N.N.N.n.N.",
"` n.N.n.n.n.n.n.` ` n.N.n.n.n.n.` n.N.n.n.n.` n.` n.n.N.n.n.n.n.",
"9.` ` 9.9.9.` ` ` 9.9.` `             9.9.9.` ` 9.9.9.` ` 9.` ` ",
"P.n.9.P.P.n.P.` n.P.`     ^.^.^.^.^.^.    n.P.P.` P.` P.P.P.P.P.",
"N.n.` P.N.N._ N.N.    ^.^.^.^.^.^.^.^.^.^.    N.N.` ` P.N.N.N.N.",
"n.n.` P.N.` n.n.    ^.^.^.^.^.^.^.^.^.^.^.^.    N.N.` n.n.N.n.n.",
"` 9.9.` ` ` `   >   ^.^.^.^.^.^.^.^.^.^.^.^.  >   9.9.` ` ` ` ` ",
"P.P.P.` N.N.  f N   ^.^.^.^.^.^.^.^.^.^.^.^.  N >   P.P.n.` ` N.",
"P.N.N.` N.  > > N   ^.^.^.^.^.^.^.^.^.^.^.^.  N > >   N.N.` ` P.",
"n.n.` n.n.  +.> +.  ^.^.^.^.^.^.^.^.^.^.^.^.  +.> +.  n.n.n.` n.",
"` ` ` 9.  > +.> +.  ^.^.^.^.^.^.^.^.^.^.^.^.  +.> +.>   9.9.` 9.",
"P.` n.9.  > +.> >   ^.^.^.^.^.^.^.^.^.^.^.^.  > > +.>   N.P.` P.",
"N.` n.  N > > > @.>   ^.^.^.^.^.^.^.^.^.^.  > @.> > > N   N.n.` ",
"` n.n.  N > N N q >   ^.^.^.^.^.^.^.^.^.^.  > q N N > N   n.n.` ",
"` 9.9.  N > > q z.  ^.^.^.^.^.^.^.^.^.^.^.^.  z.q > > N   ` 9.` ",
"` P.  > +.> > q q z.  ^.^.^.^.^.^.^.^.^.^.  z.q q > > +.>   P.` ",
"` P.  N +.N q z.q z.  ^.^.^.^.^.^.^.^.^.^.  z.q z.q N +.N   n.` ",
"` n.  N +.q M.z.6.q   ^.^.^.^.^.^.^.^.^.^.  q 6.z.M.q +.N   n.` ",
"` `   N @.q M.q M.z.  ^.^.^.^.^.^.^.^.^.^.  z.M.q M.q @.N   ` ` ",
"` n.  N @.N q M.q   ^.^.^.^.^.^.^.^.^.^.^.^.  q M.q N @.N   P.` ",
"` n.  N @.N q > q <.  ^.^.^.^.^.^.^.^.^.^.  <.q > q N @.N   N.` ",
"` n.  N @.N > N N <.  ^.^.^.^.^.^.^.^.^.^.  <.N N > N @.N   n.` ",
"` 9.  N @.N @.> >   ^.^.^.^.^.^.^.^.^.^.^.^.  > > @.N @.N   ` ` ",
"` P.  N @.N @.> +.  ^.^.^.^.^.^.^.^.^.^.^.^.  +.> @.N @.N   ` ` ",
"` N.  N @.N @.N +.  ^.^.^.^.^.^.^.^.^.^.^.^.  +.N @.N @.N   ` ` ",
"` n.  N +.N +.> 9   ^.^.^.^.^.^.^.^.^.^.^.^.  > > +.N +.N   9.` ",
"` `   N +.> N >   ^.^.^.^.^.^.^.^.^.^.^.^.^.^.  > N > +.N   9.` ",
"` P.  N +.> >   ^.^.^.^.^.^.^.^.^.^.^.^.^.^.^.^.  > > +.N   P.` ",
"` N.  N N f   ^.^.^.^.^.^.^.^.^.^.^.^.^.^.^.^.^.^.  > N N   n.` ",
"` n.  > N   ^.^.^.^.^.^.^.^.^.^.^.^.^.^.^.^.^.^.^.^.  N >   n.` ",
"` 9.  >   ^.^.^.^.^.^.^.^.^.^.^.^.^.^.^.^.^.^.^.^.^.^.  >   9.` ",
"` P.    ^.^.^.^.^.^.^.^.^.^.^.^.^.^.^.^.^.^.^.^.^.^.^.^.    P.` "
};