/* XPM */
static char *_item[] = {
/* columns rows colors chars-per-pixel */
"32 32 5 1 ",
"  c none",
". c black",
"Y c yellow",
"o c orange",
"D c gray",
"                                ",
"                                ",
"                                ",
"                                ",
"                                ",
"                                ",
"                                ",
"                                ",
"                                ",
"                                ",
"                                ",
"              ....              ",
"            ..YYYY..            ",
"           .YYooooYY.           ",
"          .YooooooooY.          ",
"         .YooooYYooooD.         ",
"         .YoooYooYoooD.         ",
"         .YooYooooDooD.         ",
"         .YooYooooDooD.         ",
"         .YooYooooDooD.         ",
"         .YooYoooDoooD.         ",
"         .YoooYDDooooD.         ",
"          .YooooooooD.          ",
"           .YYooooDD.           ",
"            ..DDDD..            ",
"              ....              ",
"                                ",
"                                ",
"                                ",
"                                ",
"                                ",
"                                "
};